<?xml version="1.0" encoding="UTF-8" standalone="no"?>
<svg
   xmlns:dc="http://purl.org/dc/elements/1.1/"
   xmlns:cc="http://creativecommons.org/ns#"
   xmlns:rdf="http://www.w3.org/1999/02/22-rdf-syntax-ns#"
   xmlns:svg="http://www.w3.org/2000/svg"
   xmlns="http://www.w3.org/2000/svg"
   xmlns:sodipodi="http://sodipodi.sourceforge.net/DTD/sodipodi-0.dtd"
   xmlns:inkscape="http://www.inkscape.org/namespaces/inkscape"
   viewBox="0 0 24 30"
   version="1.1"
   x="0px"
   y="0px"
   id="svg106"
   sodipodi:docname="icon-challenge-1.svg"
   inkscape:version="1.0.1 (c497b03c, 2020-09-10)">
  <metadata
     id="metadata112">
    <rdf:RDF>
      <cc:Work
         rdf:about="">
        <dc:format>image/svg+xml</dc:format>
        <dc:type
           rdf:resource="http://purl.org/dc/dcmitype/StillImage" />
      </cc:Work>
    </rdf:RDF>
  </metadata>
  <defs
     id="defs110" />
  <sodipodi:namedview
     pagecolor="#ffffff"
     bordercolor="#666666"
     borderopacity="1"
     objecttolerance="10"
     gridtolerance="10"
     guidetolerance="10"
     inkscape:pageopacity="0"
     inkscape:pageshadow="2"
     inkscape:window-width="1920"
     inkscape:window-height="948"
     id="namedview108"
     showgrid="false"
     inkscape:zoom="18.9"
     inkscape:cx="12"
     inkscape:cy="15"
     inkscape:window-x="1280"
     inkscape:window-y="25"
     inkscape:window-maximized="1"
     inkscape:current-layer="svg106" />
  <title
     id="title64">game_019-challenge-swords-match-attack-weapon</title>
  <desc
     id="desc66">Created with Sketch.</desc>
  <g
     stroke="none"
     stroke-width="1"
     fill="none"
     fill-rule="evenodd"
     id="g104"
     transform="translate(0.15873016,2.962963)">
    <g
       transform="translate(-429,-93)"
       fill="#000000"
       id="g102">
      <g
         transform="translate(427,91)"
         id="g100">
        <g
           transform="rotate(45,9,24.863961)"
           id="g82">
          <path
             d="M 4.9160251,0.7773501 C 5.0692014,0.54758575 5.0071144,0.23715108 4.7773501,0.08397485 4.5475857,-0.06920138 4.2371511,-0.00711444 4.0839748,0.2226499 l -1.9999999,3 c -0.1531763,0.2297644 -0.091089,0.540199 0.138675,0.6933752 0.2297644,0.1531763 0.540199,0.091089 0.6933752,-0.138675 z M 6,11.205582 c 0,0.276142 0.2238576,0.5 0.5,0.5 0.2761424,0 0.5,-0.223858 0.5,-0.5 V 3.5 C 7,3.2238576 6.7761424,3 6.5,3 6.2238576,3 6,3.2238576 6,3.5 Z"
             id="path68" />
          <path
             d="m 3,15.288019 c 0,-0.276143 -0.2238576,-0.5 -0.5,-0.5 -0.2761424,0 -0.5,0.223857 -0.5,0.5 V 18.5 C 2,18.776142 2.2238576,19 2.5,19 2.7761424,19 3,18.776142 3,18.5 Z M 3,3.5 C 3,3.2238576 2.7761424,3 2.5,3 2.2238576,3 2,3.2238576 2,3.5 v 7.56782 c 0,0.276143 0.2238576,0.5 0.5,0.5 0.2761424,0 0.5,-0.223857 0.5,-0.5 z M 6.0839748,3.7773501 C 6.2371511,4.0071144 6.5475857,4.0692014 6.7773501,3.9160251 7.0071144,3.7628489 7.0692014,3.4524143 6.9160251,3.2226499 l -2,-3 C 4.7628489,-0.00711444 4.4524143,-0.06920138 4.2226499,0.08397485 3.9928856,0.23715108 3.9307986,0.54758575 4.0839748,0.7773501 Z M 6,18.5 C 6,18.776142 6.2238576,19 6.5,19 6.7761424,19 7,18.776142 7,18.5 v -3.134987 c 0,-0.276142 -0.2238576,-0.5 -0.5,-0.5 -0.2761424,0 -0.5,0.223858 -0.5,0.5 z"
             id="path70" />
          <path
             d="M 1.4970301,19 H 7.5029699 C 7.7787666,19 8,19.221302 8,19.5 8,19.773667 7.7732997,20 7.5029699,20 H 1.4970301 C 1.2212334,20 1,19.778698 1,19.5 1,19.226333 1.2267002,19 1.4970301,19 Z m 0,2 H 7.5029699 C 8.3252216,21 9,20.326316 9,19.5 9,18.669087 8.331121,18 7.5029699,18 H 1.4970301 C 0.67477844,18 0,18.673684 0,19.5 0,20.330913 0.66887898,21 1.4970301,21 Z"
             id="path72" />
          <polygon
             points="4,23.5 4,20.5 3,20.5 3,23.5 "
             id="polygon74" />
          <polygon
             points="5,20.5 5,23.5 6,23.5 6,20.5 "
             id="polygon76" />
          <path
             d="M 7,25.5 C 7,24.119288 5.8807119,23 4.5,23 3.1192881,23 2,24.119288 2,25.5 2,26.880712 3.1192881,28 4.5,28 5.8807119,28 7,26.880712 7,25.5 Z m -4,0 C 3,24.671573 3.6715729,24 4.5,24 5.3284271,24 6,24.671573 6,25.5 6,26.328427 5.3284271,27 4.5,27 3.6715729,27 3,26.328427 3,25.5 Z"
             id="path78" />
          <path
             d="m 4,11.282576 c 0,0.276143 0.2238576,0.5 0.5,0.5 0.2761424,0 0.5,-0.223857 0.5,-0.5 V 5.5 C 5,5.2238576 4.7761424,5 4.5,5 4.2238576,5 4,5.2238576 4,5.5 Z M 4,18.5 C 4,18.776142 4.2238576,19 4.5,19 4.7761424,19 5,18.776142 5,18.5 v -3.169341 c 0,-0.276142 -0.2238576,-0.5 -0.5,-0.5 -0.2761424,0 -0.5,0.223858 -0.5,0.5 z"
             id="path80" />
        </g>
        <g
           transform="matrix(-0.70710678,0.70710678,0.70710678,0.70710678,7.7824856,0.91852455)"
           id="g98">
          <path
             d="M 4.9160251,0.7773501 C 5.0692014,0.54758575 5.0071144,0.23715108 4.7773501,0.08397485 4.5475857,-0.06920138 4.2371511,-0.00711444 4.0839748,0.2226499 l -1.9999999,3 c -0.1531763,0.2297644 -0.091089,0.540199 0.138675,0.6933752 0.2297644,0.1531763 0.540199,0.091089 0.6933752,-0.138675 z M 6,18.5 C 6,18.776142 6.2238576,19 6.5,19 6.7761424,19 7,18.776142 7,18.5 V 3.5 C 7,3.2238576 6.7761424,3 6.5,3 6.2238576,3 6,3.2238576 6,3.5 Z"
             id="path84" />
          <path
             d="M 3,3.5 C 3,3.2238576 2.7761424,3 2.5,3 2.2238576,3 2,3.2238576 2,3.5 v 15 C 2,18.776142 2.2238576,19 2.5,19 2.7761424,19 3,18.776142 3,18.5 Z M 6.0839748,3.7773501 C 6.2371511,4.0071144 6.5475857,4.0692014 6.7773501,3.9160251 7.0071144,3.7628489 7.0692014,3.4524143 6.9160251,3.2226499 l -2,-3 C 4.7628489,-0.00711444 4.4524143,-0.06920138 4.2226499,0.08397485 3.9928856,0.23715108 3.9307986,0.54758575 4.0839748,0.7773501 Z"
             id="path86" />
          <path
             d="M 1.4970301,19 H 7.5029699 C 7.7787666,19 8,19.221302 8,19.5 8,19.773667 7.7732997,20 7.5029699,20 H 1.4970301 C 1.2212334,20 1,19.778698 1,19.5 1,19.226333 1.2267002,19 1.4970301,19 Z m 0,2 H 7.5029699 C 8.3252216,21 9,20.326316 9,19.5 9,18.669087 8.331121,18 7.5029699,18 H 1.4970301 C 0.67477844,18 0,18.673684 0,19.5 0,20.330913 0.66887898,21 1.4970301,21 Z"
             id="path88" />
          <polygon
             points="4,23.5 4,20.5 3,20.5 3,23.5 "
             id="polygon90" />
          <polygon
             points="5,20.5 5,23.5 6,23.5 6,20.5 "
             id="polygon92" />
          <path
             d="M 7,25.5 C 7,24.119288 5.8807119,23 4.5,23 3.1192881,23 2,24.119288 2,25.5 2,26.880712 3.1192881,28 4.5,28 5.8807119,28 7,26.880712 7,25.5 Z m -4,0 C 3,24.671573 3.6715729,24 4.5,24 5.3284271,24 6,24.671573 6,25.5 6,26.328427 5.3284271,27 4.5,27 3.6715729,27 3,26.328427 3,25.5 Z"
             id="path94" />
          <path
             d="M 4,18.5 C 4,18.776142 4.2238576,19 4.5,19 4.7761424,19 5,18.776142 5,18.5 V 5.5 C 5,5.2238576 4.7761424,5 4.5,5 4.2238576,5 4,5.2238576 4,5.5 Z"
             id="path96" />
        </g>
      </g>
    </g>
  </g>
</svg>
